<mxfile host="app.diagrams.net" agent="Mozilla/5.0 (Windows NT 10.0; Win64; x64) AppleWebKit/537.36 (KHTML, like Gecko) Chrome/136.0.0.0 Safari/537.36" version="27.0.6">
  <diagram name="Page-1" id="V0qVDzq8Py96l6sc_RJN">
    <mxGraphModel dx="2528" dy="921" grid="1" gridSize="10" guides="1" tooltips="1" connect="1" arrows="1" fold="1" page="1" pageScale="1" pageWidth="850" pageHeight="1100" math="0" shadow="0">
      <root>
        <mxCell id="0" />
        <mxCell id="1" parent="0" />
        <mxCell id="f_taIzXEMPLsP0SaDgYG-1" value="&lt;font style=&quot;font-size: 19px;&quot;&gt;User&lt;/font&gt;" style="shape=umlActor;verticalLabelPosition=bottom;verticalAlign=top;html=1;outlineConnect=0;" vertex="1" parent="1">
          <mxGeometry x="-170" y="370" width="140" height="260" as="geometry" />
        </mxCell>
        <mxCell id="f_taIzXEMPLsP0SaDgYG-2" value="" style="ellipse;whiteSpace=wrap;html=1;" vertex="1" parent="1">
          <mxGeometry x="380" y="70" width="180" height="80" as="geometry" />
        </mxCell>
        <mxCell id="f_taIzXEMPLsP0SaDgYG-3" value="&lt;font style=&quot;font-size: 15px;&quot;&gt;Add Client&lt;/font&gt;" style="text;html=1;align=center;verticalAlign=middle;whiteSpace=wrap;rounded=0;" vertex="1" parent="1">
          <mxGeometry x="425" y="95" width="90" height="30" as="geometry" />
        </mxCell>
        <mxCell id="f_taIzXEMPLsP0SaDgYG-4" value="" style="ellipse;whiteSpace=wrap;html=1;" vertex="1" parent="1">
          <mxGeometry x="380" y="180" width="180" height="80" as="geometry" />
        </mxCell>
        <mxCell id="f_taIzXEMPLsP0SaDgYG-5" value="&lt;font style=&quot;font-size: 15px;&quot;&gt;Update Client&lt;/font&gt;" style="text;html=1;align=center;verticalAlign=middle;whiteSpace=wrap;rounded=0;" vertex="1" parent="1">
          <mxGeometry x="410" y="205" width="130" height="30" as="geometry" />
        </mxCell>
        <mxCell id="f_taIzXEMPLsP0SaDgYG-6" value="" style="ellipse;whiteSpace=wrap;html=1;" vertex="1" parent="1">
          <mxGeometry x="385" y="290" width="180" height="80" as="geometry" />
        </mxCell>
        <mxCell id="f_taIzXEMPLsP0SaDgYG-7" value="&lt;font style=&quot;font-size: 15px;&quot;&gt;Delete Client&lt;/font&gt;" style="text;html=1;align=center;verticalAlign=middle;whiteSpace=wrap;rounded=0;" vertex="1" parent="1">
          <mxGeometry x="410" y="315" width="130" height="30" as="geometry" />
        </mxCell>
        <mxCell id="f_taIzXEMPLsP0SaDgYG-9" value="" style="ellipse;whiteSpace=wrap;html=1;" vertex="1" parent="1">
          <mxGeometry x="385" y="400" width="180" height="80" as="geometry" />
        </mxCell>
        <mxCell id="f_taIzXEMPLsP0SaDgYG-10" value="&lt;font style=&quot;font-size: 15px;&quot;&gt;Add Product&lt;/font&gt;" style="text;html=1;align=center;verticalAlign=middle;whiteSpace=wrap;rounded=0;" vertex="1" parent="1">
          <mxGeometry x="415" y="425" width="120" height="30" as="geometry" />
        </mxCell>
        <mxCell id="f_taIzXEMPLsP0SaDgYG-12" value="" style="ellipse;whiteSpace=wrap;html=1;" vertex="1" parent="1">
          <mxGeometry x="385" y="510" width="180" height="80" as="geometry" />
        </mxCell>
        <mxCell id="f_taIzXEMPLsP0SaDgYG-13" value="&lt;font style=&quot;font-size: 15px;&quot;&gt;Update Product&lt;/font&gt;" style="text;html=1;align=center;verticalAlign=middle;whiteSpace=wrap;rounded=0;" vertex="1" parent="1">
          <mxGeometry x="415" y="535" width="120" height="30" as="geometry" />
        </mxCell>
        <mxCell id="f_taIzXEMPLsP0SaDgYG-14" value="" style="ellipse;whiteSpace=wrap;html=1;" vertex="1" parent="1">
          <mxGeometry x="385" y="620" width="180" height="80" as="geometry" />
        </mxCell>
        <mxCell id="f_taIzXEMPLsP0SaDgYG-15" value="&lt;font style=&quot;font-size: 15px;&quot;&gt;Delete Product&lt;/font&gt;" style="text;html=1;align=center;verticalAlign=middle;whiteSpace=wrap;rounded=0;" vertex="1" parent="1">
          <mxGeometry x="415" y="645" width="120" height="30" as="geometry" />
        </mxCell>
        <mxCell id="f_taIzXEMPLsP0SaDgYG-16" value="" style="ellipse;whiteSpace=wrap;html=1;" vertex="1" parent="1">
          <mxGeometry x="385" y="730" width="180" height="80" as="geometry" />
        </mxCell>
        <mxCell id="f_taIzXEMPLsP0SaDgYG-17" value="&lt;font style=&quot;font-size: 15px;&quot;&gt;Send Order&lt;/font&gt;" style="text;html=1;align=center;verticalAlign=middle;whiteSpace=wrap;rounded=0;" vertex="1" parent="1">
          <mxGeometry x="415" y="755" width="120" height="30" as="geometry" />
        </mxCell>
        <mxCell id="f_taIzXEMPLsP0SaDgYG-18" value="" style="ellipse;whiteSpace=wrap;html=1;" vertex="1" parent="1">
          <mxGeometry x="385" y="830" width="180" height="80" as="geometry" />
        </mxCell>
        <mxCell id="f_taIzXEMPLsP0SaDgYG-19" value="&lt;font style=&quot;font-size: 15px;&quot;&gt;Delete Order&lt;/font&gt;" style="text;html=1;align=center;verticalAlign=middle;whiteSpace=wrap;rounded=0;" vertex="1" parent="1">
          <mxGeometry x="415" y="855" width="120" height="30" as="geometry" />
        </mxCell>
        <mxCell id="f_taIzXEMPLsP0SaDgYG-20" value="" style="ellipse;whiteSpace=wrap;html=1;" vertex="1" parent="1">
          <mxGeometry x="190" y="870" width="180" height="80" as="geometry" />
        </mxCell>
        <mxCell id="f_taIzXEMPLsP0SaDgYG-21" value="&lt;font style=&quot;font-size: 15px;&quot;&gt;View Clients&lt;/font&gt;" style="text;html=1;align=center;verticalAlign=middle;whiteSpace=wrap;rounded=0;" vertex="1" parent="1">
          <mxGeometry x="220" y="895" width="120" height="30" as="geometry" />
        </mxCell>
        <mxCell id="f_taIzXEMPLsP0SaDgYG-22" value="" style="ellipse;whiteSpace=wrap;html=1;" vertex="1" parent="1">
          <mxGeometry x="-10" y="870" width="180" height="80" as="geometry" />
        </mxCell>
        <mxCell id="f_taIzXEMPLsP0SaDgYG-23" value="&lt;font style=&quot;font-size: 15px;&quot;&gt;View Products&lt;/font&gt;" style="text;html=1;align=center;verticalAlign=middle;whiteSpace=wrap;rounded=0;" vertex="1" parent="1">
          <mxGeometry x="20" y="895" width="120" height="30" as="geometry" />
        </mxCell>
        <mxCell id="f_taIzXEMPLsP0SaDgYG-24" value="" style="ellipse;whiteSpace=wrap;html=1;" vertex="1" parent="1">
          <mxGeometry x="-210" y="870" width="180" height="80" as="geometry" />
        </mxCell>
        <mxCell id="f_taIzXEMPLsP0SaDgYG-25" value="&lt;font style=&quot;font-size: 15px;&quot;&gt;View Orders&lt;/font&gt;" style="text;html=1;align=center;verticalAlign=middle;whiteSpace=wrap;rounded=0;" vertex="1" parent="1">
          <mxGeometry x="-180" y="895" width="120" height="30" as="geometry" />
        </mxCell>
        <mxCell id="f_taIzXEMPLsP0SaDgYG-26" value="" style="ellipse;whiteSpace=wrap;html=1;" vertex="1" parent="1">
          <mxGeometry x="-410" y="870" width="180" height="80" as="geometry" />
        </mxCell>
        <mxCell id="f_taIzXEMPLsP0SaDgYG-27" value="&lt;font style=&quot;font-size: 15px;&quot;&gt;View Bills&lt;/font&gt;" style="text;html=1;align=center;verticalAlign=middle;whiteSpace=wrap;rounded=0;" vertex="1" parent="1">
          <mxGeometry x="-380" y="895" width="120" height="30" as="geometry" />
        </mxCell>
        <mxCell id="f_taIzXEMPLsP0SaDgYG-28" value="" style="endArrow=none;html=1;rounded=0;entryX=0;entryY=0.5;entryDx=0;entryDy=0;" edge="1" parent="1" source="f_taIzXEMPLsP0SaDgYG-1" target="f_taIzXEMPLsP0SaDgYG-2">
          <mxGeometry width="50" height="50" relative="1" as="geometry">
            <mxPoint x="-10" y="380" as="sourcePoint" />
            <mxPoint x="220" y="630" as="targetPoint" />
          </mxGeometry>
        </mxCell>
        <mxCell id="f_taIzXEMPLsP0SaDgYG-29" value="" style="endArrow=none;html=1;rounded=0;entryX=0;entryY=0.5;entryDx=0;entryDy=0;" edge="1" parent="1" target="f_taIzXEMPLsP0SaDgYG-4">
          <mxGeometry width="50" height="50" relative="1" as="geometry">
            <mxPoint x="-20" y="450" as="sourcePoint" />
            <mxPoint x="370" y="220" as="targetPoint" />
          </mxGeometry>
        </mxCell>
        <mxCell id="f_taIzXEMPLsP0SaDgYG-30" value="" style="endArrow=none;html=1;rounded=0;entryX=0;entryY=0.5;entryDx=0;entryDy=0;" edge="1" parent="1" target="f_taIzXEMPLsP0SaDgYG-6">
          <mxGeometry width="50" height="50" relative="1" as="geometry">
            <mxPoint x="-20" y="450" as="sourcePoint" />
            <mxPoint x="220" y="430" as="targetPoint" />
          </mxGeometry>
        </mxCell>
        <mxCell id="f_taIzXEMPLsP0SaDgYG-31" value="" style="endArrow=none;html=1;rounded=0;entryX=0;entryY=0.5;entryDx=0;entryDy=0;" edge="1" parent="1" target="f_taIzXEMPLsP0SaDgYG-9">
          <mxGeometry width="50" height="50" relative="1" as="geometry">
            <mxPoint x="-20" y="460" as="sourcePoint" />
            <mxPoint x="220" y="430" as="targetPoint" />
          </mxGeometry>
        </mxCell>
        <mxCell id="f_taIzXEMPLsP0SaDgYG-32" value="" style="endArrow=none;html=1;rounded=0;entryX=0;entryY=0.5;entryDx=0;entryDy=0;" edge="1" parent="1" target="f_taIzXEMPLsP0SaDgYG-12">
          <mxGeometry width="50" height="50" relative="1" as="geometry">
            <mxPoint x="-20" y="470" as="sourcePoint" />
            <mxPoint x="220" y="430" as="targetPoint" />
          </mxGeometry>
        </mxCell>
        <mxCell id="f_taIzXEMPLsP0SaDgYG-33" value="" style="endArrow=none;html=1;rounded=0;entryX=0;entryY=0.5;entryDx=0;entryDy=0;" edge="1" parent="1" target="f_taIzXEMPLsP0SaDgYG-14">
          <mxGeometry width="50" height="50" relative="1" as="geometry">
            <mxPoint x="-20" y="480" as="sourcePoint" />
            <mxPoint x="220" y="430" as="targetPoint" />
          </mxGeometry>
        </mxCell>
        <mxCell id="f_taIzXEMPLsP0SaDgYG-34" value="" style="endArrow=none;html=1;rounded=0;entryX=0;entryY=0.5;entryDx=0;entryDy=0;" edge="1" parent="1" source="f_taIzXEMPLsP0SaDgYG-1" target="f_taIzXEMPLsP0SaDgYG-16">
          <mxGeometry width="50" height="50" relative="1" as="geometry">
            <mxPoint x="170" y="680" as="sourcePoint" />
            <mxPoint x="220" y="630" as="targetPoint" />
          </mxGeometry>
        </mxCell>
        <mxCell id="f_taIzXEMPLsP0SaDgYG-35" value="" style="endArrow=none;html=1;rounded=0;entryX=0.094;entryY=0.213;entryDx=0;entryDy=0;entryPerimeter=0;" edge="1" parent="1" source="f_taIzXEMPLsP0SaDgYG-1" target="f_taIzXEMPLsP0SaDgYG-18">
          <mxGeometry width="50" height="50" relative="1" as="geometry">
            <mxPoint x="170" y="680" as="sourcePoint" />
            <mxPoint x="400" y="840" as="targetPoint" />
          </mxGeometry>
        </mxCell>
        <mxCell id="f_taIzXEMPLsP0SaDgYG-36" value="" style="endArrow=none;html=1;rounded=0;entryX=0.389;entryY=0;entryDx=0;entryDy=0;entryPerimeter=0;" edge="1" parent="1" target="f_taIzXEMPLsP0SaDgYG-20">
          <mxGeometry width="50" height="50" relative="1" as="geometry">
            <mxPoint x="-40" y="640" as="sourcePoint" />
            <mxPoint x="220" y="630" as="targetPoint" />
          </mxGeometry>
        </mxCell>
        <mxCell id="f_taIzXEMPLsP0SaDgYG-37" value="" style="endArrow=none;html=1;rounded=0;exitX=0.5;exitY=0;exitDx=0;exitDy=0;" edge="1" parent="1" source="f_taIzXEMPLsP0SaDgYG-26">
          <mxGeometry width="50" height="50" relative="1" as="geometry">
            <mxPoint x="170" y="680" as="sourcePoint" />
            <mxPoint x="-180" y="630" as="targetPoint" />
          </mxGeometry>
        </mxCell>
        <mxCell id="f_taIzXEMPLsP0SaDgYG-38" value="" style="endArrow=none;html=1;rounded=0;entryX=0.333;entryY=0;entryDx=0;entryDy=0;entryPerimeter=0;" edge="1" parent="1" target="f_taIzXEMPLsP0SaDgYG-24">
          <mxGeometry width="50" height="50" relative="1" as="geometry">
            <mxPoint x="-150" y="640" as="sourcePoint" />
            <mxPoint x="220" y="630" as="targetPoint" />
          </mxGeometry>
        </mxCell>
        <mxCell id="f_taIzXEMPLsP0SaDgYG-39" value="" style="endArrow=none;html=1;rounded=0;entryX=0.461;entryY=-0.012;entryDx=0;entryDy=0;entryPerimeter=0;" edge="1" parent="1" target="f_taIzXEMPLsP0SaDgYG-22">
          <mxGeometry width="50" height="50" relative="1" as="geometry">
            <mxPoint x="-70" y="640" as="sourcePoint" />
            <mxPoint x="220" y="630" as="targetPoint" />
          </mxGeometry>
        </mxCell>
      </root>
    </mxGraphModel>
  </diagram>
</mxfile>
